<mxfile host="app.diagrams.net" modified="2023-12-18T14:33:12.027Z" agent="Mozilla/5.0 (Windows NT 10.0; Win64; x64; rv:120.0) Gecko/20100101 Firefox/120.0" version="22.1.11" etag="ZINuSOc5OKg_pBxDje7y" type="github">
  <diagram name="Page-1" id="geVlNqPamKYG3F1XzN8d">
    <mxGraphModel>
      <root>
        <mxCell id="0" />
        <mxCell id="1" parent="0" />
      </root>
    </mxGraphModel>
  </diagram>
</mxfile>
